# xmcd
# 
# Track frame offsets:
#     150
#     18847
#     39257
#     57967
# 
# Disc length: 1041
# 
# Revision: 1
# Processed by: cddbd v1.5.2PL0 Copyright (c) Steve Scherf et al.
# Submitted via: fre:ac v1.0.31
# 
DISCID=24040f04
DTITLE=LINDBERG - 大キライ！
DYEAR=1993
DGENRE=Anime
TTITLE0=大キライ！(シングルバージョン)
TTITLE1=二人きりで行こうよ(シングルバージョン)
TTITLE2=大キライ！(カラオケ)
TTITLE3=二人きりで行こうよ(カラオケ)
EXTD=YEAR: 1993
EXTT0=
EXTT1=
EXTT2=
EXTT3=
PLAYORDER=
